<?xml version="1.0" standalone="no"?>
<!DOCTYPE svg PUBLIC "-//W3C//DTD SVG 20010904//EN"
 "http://www.w3.org/TR/2001/REC-SVG-20010904/DTD/svg10.dtd">
<svg version="1.0" xmlns="http://www.w3.org/2000/svg"
 width="504.000000pt" height="504.000000pt" viewBox="0 0 504.000000 504.000000"
 preserveAspectRatio="xMidYMid meet">
<metadata>
Created by potrace 1.16, written by Peter Selinger 2001-2019
</metadata>
<g transform="translate(0.000000,504.000000) scale(0.100000,-0.100000)"
fill="#000000" stroke="none">
<path d="M2288 4780 c-107 -13 -278 -48 -393 -81 -688 -197 -1244 -725 -1509
-1432 -70 -187 -136 -506 -136 -659 l0 -58 64 0 c49 0 65 4 70 16 11 29 6 33
-46 36 l-53 3 3 55 c6 94 16 135 32 135 12 0 14 -14 12 -77 l-4 -78 32 0 c55
0 65 -12 62 -69 l-4 -51 -103 0 -103 0 -4 -30 c-4 -24 -1 -30 16 -32 19 -3 21
-12 27 -118 48 -860 570 -1603 1369 -1947 297 -128 536 -180 872 -190 240 -7
408 11 633 67 190 47 316 94 480 179 395 204 682 467 920 846 190 301 303 661
330 1047 5 68 11 98 21 102 8 3 14 17 14 31 l0 25 -99 0 -98 0 -6 53 c-2 28
-3 55 0 60 2 4 35 7 74 7 l69 0 0 -45 c0 -35 4 -45 16 -45 15 0 16 12 9 103
-36 521 -259 1030 -634 1442 -339 373 -812 617 -1346 696 -137 20 -449 25
-587 9z m240 -107 l-3 -88 -62 -3 c-59 -3 -63 -4 -63 -27 0 -67 -43 10 -44 79
l-1 41 48 3 c36 2 47 0 47 -12 0 -8 -11 -16 -27 -18 -14 -2 -28 -9 -31 -15 -2
-9 11 -13 47 -13 l51 0 0 45 0 45 -67 0 c-38 0 -78 -3 -91 -6 -21 -6 -22 -10
-15 -53 4 -25 8 -64 8 -85 l0 -40 -75 -12 c-685 -107 -1235 -506 -1546 -1120
-120 -237 -186 -487 -214 -812 -22 -258 37 -618 142 -877 104 -255 219 -426
423 -631 149 -150 239 -223 381 -311 41 -25 74 -49 74 -54 0 -22 -27 -16 -91
22 -60 36 -73 40 -80 27 -4 -8 -17 -25 -27 -38 -19 -23 -21 -23 -45 -8 -13 10
-52 40 -86 68 -55 45 -60 53 -49 70 7 11 17 20 23 20 5 0 37 -21 69 -45 58
-44 86 -55 86 -35 0 8 -113 103 -148 124 -15 9 -92 -59 -92 -80 0 -15 91 -87
221 -178 l97 -66 16 25 c20 31 21 30 -10 50 -20 13 -28 14 -34 5 -9 -15 -30
-5 -30 14 0 7 6 20 13 30 13 18 17 17 70 -18 32 -19 57 -39 57 -42 0 -15 -56
-104 -65 -104 -30 0 -278 171 -352 243 l-42 40 50 56 c27 30 49 59 49 64 0 6
-48 60 -107 121 -60 61 -128 139 -153 173 -25 34 -49 63 -54 63 -4 0 -27 -14
-50 -32 -22 -17 -43 -33 -45 -35 -6 -4 43 -75 79 -117 27 -31 34 -34 51 -23
26 16 25 23 -21 75 -22 25 -39 50 -37 56 8 25 34 13 67 -30 70 -92 67 -81 32
-117 -24 -25 -29 -36 -20 -45 8 -8 20 -4 48 18 l37 29 63 -64 63 -63 -21 -29
c-11 -15 -31 -38 -44 -50 l-24 -23 -39 40 c-38 39 -38 40 -20 60 20 22 40 13
40 -18 0 -22 25 -22 38 0 8 12 4 24 -19 51 -16 20 -33 36 -39 36 -5 1 -23 -13
-40 -29 l-32 -31 -44 53 c-118 141 -249 327 -249 355 0 6 16 21 35 33 35 21
44 43 25 55 -6 4 -27 -4 -47 -16 -35 -22 -36 -22 -50 -3 -59 78 -195 449 -179
489 11 30 24 6 61 -113 20 -64 39 -119 41 -121 2 -2 22 4 44 14 22 10 42 16
44 14 2 -2 24 -49 49 -104 24 -55 65 -136 90 -180 l46 -80 -26 -23 c-20 -18
-28 -20 -39 -11 -13 10 -12 14 1 29 20 22 19 30 -4 30 -37 0 -44 -25 -19 -69
13 -23 27 -41 31 -41 11 0 97 59 97 67 0 3 -27 54 -59 112 -60 108 -124 251
-157 351 -11 30 -20 56 -20 58 -1 2 -16 -4 -33 -13 -37 -19 -42 -40 -7 -31 19
5 25 1 30 -17 9 -35 7 -47 -9 -47 -8 0 -15 5 -15 10 0 6 -10 8 -24 4 -23 -5
-26 -1 -44 58 -32 103 -36 128 -19 128 8 0 19 -18 26 -41 10 -32 16 -39 29
-34 9 4 25 10 35 12 21 7 22 0 -7 146 -14 67 -30 166 -35 219 -35 322 23 707
157 1036 l22 52 -51 28 c-101 54 -99 47 -49 143 45 89 129 229 137 229 2 0 20
-12 39 -27 33 -24 36 -25 52 -10 15 16 14 19 -21 48 -20 17 -37 34 -37 39 0
27 269 340 293 340 6 0 26 -14 44 -32 25 -24 36 -29 45 -20 8 8 3 20 -22 49
l-33 37 49 43 c91 81 361 263 388 263 12 0 76 -98 76 -117 0 -14 -87 -59 -97
-49 -4 4 4 18 20 31 32 28 32 32 8 64 -17 23 -18 23 -52 6 -95 -49 -328 -222
-328 -246 -1 -8 10 -26 24 -39 14 -13 25 -28 25 -34 0 -12 -60 -76 -72 -76 -5
0 -22 16 -39 35 l-31 35 -38 -31 c-53 -43 -56 -57 -20 -94 16 -17 30 -34 30
-39 0 -14 -74 -96 -87 -96 -21 0 -14 23 17 60 l30 34 -25 25 c-13 14 -26 23
-28 20 -91 -108 -127 -154 -127 -163 0 -6 17 -25 37 -42 l36 -31 -42 -59 c-29
-41 -49 -59 -64 -59 -12 0 -23 -7 -25 -16 -3 -19 49 -50 55 -32 2 6 31 50 64
97 l60 86 -36 31 c-19 17 -35 36 -35 43 1 14 67 86 80 86 17 0 11 -21 -15 -52
-24 -29 -25 -32 -9 -49 9 -11 23 -19 29 -19 7 0 43 34 80 76 l68 75 -33 34
c-23 23 -31 39 -26 51 6 15 12 13 43 -19 l37 -36 65 56 c36 31 70 60 75 64 5
5 -6 25 -24 46 l-33 37 44 39 c53 47 76 60 83 48 3 -5 -12 -25 -34 -45 -40
-36 -40 -37 -23 -61 10 -13 21 -25 25 -25 3 0 42 26 86 57 l81 57 -26 43 c-29
49 -29 49 44 88 46 25 55 9 15 -25 -33 -28 -34 -28 -17 -54 10 -14 22 -26 27
-26 19 0 148 81 148 93 -1 7 -18 41 -40 77 -22 35 -36 68 -32 72 29 29 423
175 442 163 4 -3 14 -28 21 -55 8 -31 18 -50 27 -50 11 0 13 9 8 43 -14 87
-20 79 82 100 52 10 100 16 107 14 16 -7 37 -139 22 -149 -17 -11 -119 -20
-127 -11 -4 4 -10 22 -13 39 -5 27 -3 33 16 38 36 10 57 7 57 -8 0 -7 -10 -17
-22 -21 -31 -9 -5 -19 29 -10 23 5 25 10 20 42 -4 19 -7 37 -9 38 -2 2 -31 -2
-66 -8 l-63 -10 7 -41 c15 -82 19 -78 -91 -107 -55 -15 -101 -27 -101 -26 -1
1 -9 19 -18 40 -11 29 -12 39 -3 42 7 2 27 8 44 14 20 6 35 6 38 0 8 -12 -3
-29 -20 -29 -8 0 -17 -5 -21 -11 -5 -9 4 -10 32 -4 21 4 40 8 41 9 8 7 -20 76
-31 76 -6 0 -40 -9 -73 -21 l-62 -20 15 -41 c24 -69 22 -72 -66 -106 l-80 -30
-15 28 c-22 42 -20 45 34 69 59 25 61 25 61 7 0 -8 -13 -19 -30 -25 -16 -5
-30 -15 -30 -20 0 -6 2 -11 5 -11 5 0 88 32 93 36 7 5 -22 74 -31 74 -10 0
-146 -56 -166 -69 -14 -9 -10 -20 35 -92 l23 -36 108 43 c132 53 250 87 407
119 65 13 120 26 123 28 2 3 -2 41 -10 86 -8 45 -10 84 -5 87 9 6 148 20 216
23 l43 1 -3 -87z m259 71 c30 -4 31 -6 26 -42 -17 -113 -19 -117 -36 -116 -9
0 -60 1 -112 2 l-95 2 0 78 c0 43 3 82 7 85 6 7 147 1 210 -9z m199 -29 c42
-8 79 -17 82 -20 7 -7 -17 -127 -28 -138 -8 -9 -185 15 -196 26 -4 3 -3 38 1
76 7 69 8 71 35 71 16 0 63 -7 106 -15z m324 -92 c69 -25 155 -61 193 -79 l67
-34 -35 -70 c-19 -38 -35 -75 -35 -82 0 -7 44 -37 98 -66 116 -63 248 -156
356 -251 l80 -70 64 56 64 57 54 -60 c74 -82 75 -89 23 -135 -24 -21 -47 -38
-50 -39 -3 0 -21 19 -39 41 l-33 42 24 18 c28 21 53 8 44 -22 -4 -11 -3 -19 0
-19 13 0 45 21 45 30 0 12 -60 80 -70 80 -5 0 -34 -22 -66 -50 l-57 -50 -69
63 c-106 95 -247 200 -355 263 -283 167 -638 273 -962 287 -33 1 -56 7 -59 15
-6 18 166 16 292 -4 168 -26 361 -82 511 -149 72 -32 82 -13 11 22 -31 15 -56
33 -56 40 0 18 10 17 72 -11 l55 -24 17 34 c9 19 16 36 16 38 0 14 -318 136
-354 136 -10 0 -20 -16 -27 -45 -6 -25 -16 -48 -21 -51 -22 -14 -26 15 -12 79
l16 69 37 -7 c20 -4 92 -27 161 -52z m-74 -47 c89 -30 234 -96 234 -107 0 -18
-19 -17 -68 6 l-52 24 -14 -21 c-14 -20 -15 -20 -104 12 l-89 32 10 39 c5 21
10 39 11 39 2 0 34 -11 72 -24z m-648 -561 l7 -80 46 -3 45 -3 16 48 16 48 1
-51 c1 -47 3 -52 27 -58 35 -9 47 9 74 109 20 71 50 147 36 90 -2 -11 -10 -62
-17 -113 -14 -100 -10 -111 34 -112 19 0 32 25 82 158 15 40 29 71 32 69 2 -3
-10 -52 -26 -110 -17 -58 -31 -111 -31 -119 0 -8 16 -19 35 -25 34 -11 34 -11
56 34 23 47 36 54 19 9 -26 -69 12 -96 44 -30 9 20 19 34 22 31 3 -3 1 -14 -5
-25 -19 -35 -14 -72 9 -72 11 0 20 3 20 8 0 4 10 18 21 32 21 26 22 24 4 -36
-4 -18 0 -24 25 -32 34 -12 39 -8 124 126 26 39 49 72 52 72 2 0 -21 -50 -52
-111 l-57 -111 21 -20 c26 -27 29 -24 123 93 71 90 97 114 62 60 -130 -206
-125 -195 -106 -209 50 -37 52 -37 111 25 32 32 85 90 120 128 82 92 65 59
-47 -90 -84 -112 -103 -145 -83 -145 5 0 28 17 52 38 42 35 46 30 10 -13 -28
-32 -30 -51 -8 -69 21 -19 15 -21 86 31 21 15 20 12 -7 -29 -17 -25 -31 -49
-31 -52 0 -11 38 13 126 80 46 35 84 61 84 57 0 -5 -38 -43 -85 -86 -47 -43
-85 -82 -85 -85 0 -9 57 -72 65 -72 3 0 30 15 58 33 61 39 97 59 97 54 0 -2
-29 -27 -65 -56 -36 -29 -65 -57 -65 -62 0 -16 24 -10 60 14 19 13 53 34 75
46 l40 23 -35 -33 c-19 -18 -52 -48 -74 -67 -28 -24 -35 -37 -27 -45 8 -8 21
-6 48 6 l38 17 -27 -24 c-16 -14 -28 -27 -28 -30 0 -3 9 -21 21 -40 l20 -34
71 24 c39 13 73 22 76 20 2 -3 -23 -18 -56 -35 -61 -31 -79 -47 -68 -59 6 -5
49 4 111 23 11 3 -2 -6 -30 -21 -27 -14 -51 -28 -53 -29 -2 -1 0 -14 4 -29 8
-32 27 -33 130 -5 86 24 109 20 37 -6 -87 -32 -133 -54 -133 -63 0 -4 6 -16
13 -27 14 -17 17 -18 106 0 50 10 94 15 97 12 4 -3 -34 -18 -82 -33 -49 -14
-92 -28 -96 -30 -4 -3 0 -25 9 -50 l16 -46 61 5 61 6 -57 -20 c-43 -15 -58
-26 -58 -40 0 -11 7 -19 16 -19 12 0 14 -3 6 -12 -16 -20 -2 -69 22 -78 19 -8
19 -9 2 -9 -17 -1 -18 -6 -12 -53 13 -94 7 -279 -11 -372 l-5 -28 -197 4
c-178 5 -206 8 -306 35 -60 17 -119 33 -130 38 -11 4 -6 -2 10 -13 94 -64 319
-107 514 -98 115 4 131 3 115 -9 -24 -17 -20 -21 47 -45 51 -19 52 -19 14 -14
-22 3 -50 7 -61 9 -18 4 -22 -1 -27 -32 -4 -20 -5 -37 -4 -38 1 -1 55 -21 120
-44 65 -24 116 -46 113 -48 -2 -3 -44 6 -93 20 -151 43 -149 43 -162 7 -8 -23
-15 -30 -28 -27 -10 3 -49 8 -87 12 -159 16 -360 80 -500 160 -44 25 -81 43
-83 41 -7 -7 85 -82 148 -119 97 -57 252 -113 385 -140 l119 -25 -3 -31 c-2
-17 1 -31 7 -31 13 0 412 -190 426 -202 13 -12 -40 9 -265 104 -101 43 -187
78 -191 78 -7 0 -44 -79 -38 -83 2 -2 32 -20 67 -41 34 -21 62 -39 62 -41 0
-6 -42 11 -100 40 -29 15 -97 42 -151 61 -226 78 -377 169 -489 293 -41 46
-95 94 -120 108 -55 32 -107 79 -125 114 -8 14 -21 66 -30 115 -20 109 -42
159 -90 212 -44 49 -121 81 -209 87 l-61 4 -3 60 -3 61 48 1 c92 2 118 -3 180
-31 80 -37 145 -104 173 -176 12 -34 24 -99 29 -165 11 -131 33 -186 94 -228
48 -32 107 -64 112 -59 1 2 -19 42 -46 90 -40 71 -78 178 -63 178 2 0 21 -17
42 -38 36 -36 124 -73 139 -59 3 3 -13 27 -36 53 -45 52 -75 132 -69 186 l4
33 11 -26 c32 -73 114 -130 216 -150 79 -15 272 -11 367 7 116 22 135 36 35
27 -127 -12 -284 -8 -348 9 -129 36 -184 93 -233 242 -37 115 -92 203 -173
278 -151 140 -343 187 -561 139 -80 -18 -205 -60 -198 -66 2 -1 44 8 93 21 61
15 117 23 175 23 l85 -1 -70 -13 c-98 -18 -215 -49 -315 -84 -47 -16 -83 -30
-80 -30 3 -1 66 12 140 29 176 39 192 39 207 -1 l12 -31 -31 6 c-45 9 -144
-11 -213 -44 -60 -28 -60 -28 -24 -29 47 -1 136 -28 177 -53 45 -28 34 -32
-27 -12 -29 9 -55 14 -58 10 -4 -3 1 -6 10 -6 25 0 125 -98 137 -134 8 -27 6
-86 -4 -86 -1 0 -19 9 -41 20 -103 52 -244 -13 -276 -127 -11 -40 -8 -140 6
-213 3 -13 0 -29 -6 -37 -9 -10 -8 -13 2 -13 9 0 10 -3 3 -8 -6 -4 -14 -19
-17 -33 -8 -33 -65 -91 -111 -113 -77 -36 -123 -2 -103 76 9 37 8 42 -12 57
-14 11 -20 23 -15 34 7 18 11 19 64 18 35 0 35 0 -17 24 -63 29 -71 61 -25 91
l27 18 -25 7 c-14 4 -51 4 -82 1 -39 -3 -58 -1 -58 6 0 18 43 110 88 190 23
41 45 93 48 115 18 117 143 282 271 360 72 44 196 86 277 95 l61 7 3 344 2
344 -78 -6 c-553 -43 -1049 -427 -1222 -947 -80 -237 -95 -470 -47 -702 22
-105 85 -309 100 -324 2 -3 71 19 153 47 155 53 258 100 332 151 24 17 46 28
48 25 9 -9 -119 -94 -211 -140 -90 -45 -266 -117 -285 -117 -19 0 -10 -25 36
-103 l45 -78 107 56 c139 74 218 130 319 229 84 81 112 94 75 34 -60 -96 -225
-223 -388 -300 -46 -21 -84 -44 -84 -49 0 -15 109 -169 120 -169 18 0 102 41
156 75 130 83 222 200 280 353 24 63 38 88 55 94 30 11 32 6 15 -33 -8 -19
-30 -73 -49 -120 -60 -152 -156 -271 -302 -374 -39 -27 -137 -99 -220 -160
-82 -61 -157 -115 -165 -120 -8 -4 40 46 108 111 67 65 122 126 122 135 0 17
-40 69 -53 69 -5 0 -23 -11 -40 -24 -71 -53 -90 -57 -37 -9 48 44 53 52 41 67
-19 22 -23 21 -95 -24 -35 -22 -66 -40 -70 -40 -4 0 20 23 53 50 65 54 66 56
51 80 -8 13 -22 9 -90 -27 -44 -24 -80 -41 -80 -38 0 2 29 25 65 50 65 47 72
58 55 85 -8 12 -17 11 -66 -13 -31 -15 -58 -26 -60 -24 -2 2 19 20 46 40 l49
37 -25 45 c-14 25 -30 45 -35 45 -4 0 -43 -14 -86 -31 -155 -62 -357 -138
-360 -135 -2 1 81 43 183 92 250 119 246 116 233 153 l-10 29 -56 -19 c-80
-27 -87 -23 -20 12 31 16 57 36 57 44 0 21 -22 65 -32 65 -5 0 -50 -11 -100
-25 -49 -14 -95 -24 -101 -22 -6 2 32 19 84 39 97 37 117 53 105 83 -6 18 -25
17 -116 -1 -14 -3 4 8 40 24 43 19 64 33 61 43 -2 8 -6 38 -9 67 -2 28 -9 52
-15 52 -7 0 -7 3 -2 9 6 6 8 46 5 93 -5 77 -6 83 -30 89 -21 6 -16 11 6 8 15
-2 23 29 23 98 0 41 3 78 7 84 3 5 0 16 -6 24 -7 8 -8 15 -3 15 6 0 13 21 16
48 3 26 8 54 12 63 5 13 -7 20 -54 33 -34 9 -61 19 -61 21 0 2 29 2 63 -2 61
-5 64 -5 70 18 17 63 16 65 -113 105 -66 20 -118 39 -116 42 3 2 60 -8 126
-23 117 -26 122 -26 135 -8 7 10 11 21 9 24 -2 4 -40 21 -84 39 -45 18 -79 35
-76 37 2 3 38 -5 78 -16 96 -27 104 -27 116 9 12 32 12 31 -93 88 -32 18 -6
14 57 -10 42 -15 62 -18 70 -10 18 18 2 38 -66 77 -36 22 -64 40 -62 42 2 2
35 -10 74 -27 39 -16 76 -30 81 -30 22 0 10 26 -26 58 -39 34 -35 35 29 8 l36
-16 21 33 21 32 -23 20 c-12 11 -41 35 -62 53 l-40 33 73 -37 c69 -35 75 -36
90 -20 16 16 12 22 -58 87 -81 76 -79 78 19 12 36 -24 70 -43 76 -43 7 0 20 9
30 20 18 20 16 23 -161 202 -98 100 -170 175 -159 166 11 -8 90 -75 175 -148
205 -176 195 -170 226 -137 l24 26 -84 98 c-47 54 -83 100 -80 102 2 2 42 -32
90 -75 114 -105 110 -103 134 -78 l21 21 -47 64 c-26 35 -52 70 -58 78 -26 35
22 -6 73 -61 29 -32 60 -58 69 -58 9 0 26 10 38 21 22 21 22 23 7 53 l-15 31
30 -29 c26 -24 34 -27 47 -16 13 11 10 21 -25 88 -22 41 -39 76 -37 78 1 2 22
-26 47 -61 32 -48 49 -65 66 -65 13 0 25 4 28 9 3 5 -30 83 -75 173 -44 89
-77 159 -72 155 4 -5 47 -72 94 -150 72 -119 91 -143 113 -145 17 -2 28 2 32
12 6 16 4 23 -41 141 -33 88 -24 79 35 -33 58 -109 85 -119 66 -22 l-7 35 25
-41 c22 -35 29 -41 52 -36 28 5 28 9 9 102 -3 15 2 9 15 -16 20 -42 46 -71 56
-61 3 3 0 42 -7 86 -13 89 -8 115 11 54 33 -108 41 -123 67 -123 l26 0 -6 118
c-6 129 -3 129 27 -3 19 -80 24 -90 45 -93 l24 -4 -5 127 c-5 137 3 146 22 25
19 -125 26 -140 64 -140 l33 0 6 103 c4 56 9 190 13 297 3 107 8 202 12 210 3
8 10 -91 14 -220 5 -129 12 -271 16 -315z m1091 439 c130 -72 349 -227 351
-247 0 -4 -21 -30 -46 -57 l-46 -49 -81 63 c-45 35 -83 68 -84 73 -2 6 5 20
15 33 l19 23 56 -43 c56 -42 81 -77 32 -46 -14 9 -36 23 -50 32 -50 33 -23 -6
32 -45 l56 -40 19 24 c10 13 18 27 18 32 0 10 -144 118 -171 128 -11 4 -24 -7
-43 -35 -14 -22 -29 -40 -32 -40 -13 0 -185 103 -182 109 17 37 63 121 67 121
2 0 34 -16 70 -36z m463 -603 l43 -50 67 50 c37 27 69 49 71 49 2 0 30 -38 62
-85 56 -82 58 -86 39 -99 -51 -36 -64 -51 -55 -65 8 -12 17 -10 52 13 l42 28
18 -23 c10 -13 30 -46 45 -73 l27 -49 -24 -18 c-23 -18 -49 -25 -49 -14 0 3 5
13 11 23 9 14 7 27 -10 61 l-22 42 -44 -26 -45 -26 -50 77 c-27 42 -50 82 -50
88 0 15 38 38 50 31 13 -8 13 -32 1 -37 -5 -1 -4 -11 4 -21 11 -15 17 -16 34
-7 12 6 21 16 21 22 0 16 -53 98 -64 98 -4 0 -30 -16 -57 -35 l-48 -36 73
-112 c40 -62 88 -138 106 -169 17 -32 38 -58 46 -58 19 0 17 19 -6 58 -27 43
-25 54 9 73 37 21 60 6 35 -23 -14 -15 -15 -22 -4 -48 15 -36 19 -36 70 -10
22 11 40 18 40 16 0 -2 3 -11 6 -19 3 -10 -15 -26 -63 -52 -37 -20 -70 -39
-72 -41 -2 -2 14 -45 36 -96 22 -51 43 -101 46 -110 6 -16 9 -16 53 3 25 12
50 17 54 12 5 -4 15 -32 24 -61 15 -53 15 -54 -5 -59 -16 -5 -19 -11 -14 -31
3 -13 9 -37 12 -53 6 -32 23 -36 80 -20 38 11 35 15 57 -109 19 -108 25 -179
17 -184 -3 -2 -34 -7 -67 -11 l-61 -7 -12 78 c-12 80 -8 93 27 94 8 0 12 6 9
13 -4 13 -56 11 -71 -3 -5 -5 -4 -42 3 -87 7 -43 15 -133 18 -200 l6 -123 84
0 84 0 -3 -27 -3 -28 -81 3 -80 3 -13 -121 c-7 -67 -12 -123 -10 -125 2 -2 29
-6 60 -10 64 -8 61 -12 74 98 6 47 5 57 -8 57 -8 0 -22 3 -31 6 -12 5 -16 0
-16 -20 0 -15 5 -25 13 -24 7 2 12 -9 12 -29 0 -18 -3 -33 -7 -33 -5 0 -22 0
-39 0 l-30 0 6 48 c15 112 10 105 77 99 33 -3 62 -8 65 -11 8 -8 -23 -232 -47
-334 l-22 -93 -31 6 c-40 9 -51 19 -43 40 4 11 13 15 26 12 20 -5 23 1 44 95
6 25 4 26 -52 36 -31 6 -60 7 -63 4 -3 -4 -18 -54 -33 -112 -26 -105 -71 -234
-120 -344 -14 -32 -26 -60 -26 -62 0 -2 32 -20 71 -39 l70 -36 -47 -87 c-45
-83 -138 -224 -189 -287 l-24 -29 -37 30 c-61 49 -62 54 -18 117 32 46 43 55
62 50 26 -6 28 4 5 29 -23 25 -35 23 -60 -15 -11 -17 -38 -56 -59 -86 l-39
-53 59 -55 c65 -61 67 -48 -17 -143 -104 -117 -279 -261 -450 -368 l-97 -61
-23 37 c-55 86 -63 71 90 171 l138 91 22 -27 22 -28 -27 -22 c-48 -38 -192
-123 -192 -113 0 5 38 35 85 66 47 31 83 59 80 64 -6 10 -199 -117 -203 -133
-1 -7 4 -21 11 -31 13 -17 17 -16 83 24 90 55 206 140 202 150 -2 4 -20 27
-41 50 l-39 42 -71 -48 c-39 -26 -112 -72 -162 -102 -49 -30 -92 -56 -94 -57
-1 -2 13 -35 33 -74 20 -39 36 -75 36 -79 0 -8 -88 -55 -183 -97 l-58 -25 -25
55 c-13 31 -24 62 -24 69 0 11 128 76 150 76 7 0 30 -45 30 -60 0 -12 -71 -42
-79 -34 -3 3 3 12 13 20 29 21 13 27 -28 10 -38 -16 -42 -25 -26 -57 15 -26
30 -24 110 16 l70 35 -30 60 c-17 33 -33 60 -35 60 -6 0 -228 -100 -233 -104
-1 -2 11 -38 28 -80 16 -42 30 -78 30 -81 0 -2 -52 -21 -116 -41 -130 -42
-124 -44 -144 43 -14 63 -10 68 49 79 26 5 37 3 46 -10 7 -9 15 -16 19 -16 8
0 -3 52 -14 63 -6 6 -146 -25 -156 -35 -1 -2 4 -32 11 -68 18 -85 18 -97 -1
-104 -35 -14 -264 -46 -366 -52 l-108 -7 0 106 0 107 34 0 c19 0 41 3 49 6 11
4 16 -7 21 -50 9 -68 28 -75 24 -8 -2 26 2 48 7 50 6 2 11 -3 12 -10 9 -65 16
-88 25 -88 7 0 9 18 4 55 -7 63 -23 54 144 79 58 9 154 29 213 45 59 15 110
24 113 20 15 -25 43 -124 37 -130 -5 -4 -25 -12 -47 -18 -34 -9 -39 -8 -43 10
-6 21 -33 27 -33 7 0 -26 13 -58 22 -58 5 0 41 9 79 21 l68 21 -29 81 c-17 44
-29 82 -27 83 1 2 56 26 122 54 403 172 706 416 922 740 228 341 346 721 346
1105 -1 420 -118 803 -357 1165 -46 69 -108 156 -139 194 -51 62 -62 86 -37
86 5 0 28 -22 52 -49z m503 -493 c31 -68 94 -247 109 -311 6 -23 3 -29 -20
-38 -15 -5 -34 -9 -42 -7 -24 5 -25 26 -3 33 12 3 21 15 21 25 0 21 -59 192
-90 263 -22 49 -34 56 -64 34 -15 -11 -16 -17 -5 -40 11 -24 13 -25 25 -9 11
15 14 14 28 -18 16 -39 13 -46 -26 -55 -26 -7 -29 -3 -49 41 -43 101 -45 91
19 123 31 17 58 30 60 31 2 0 18 -33 37 -72z m-4066 -81 c-12 -28 -28 -71 -36
-95 -9 -24 -20 -41 -27 -39 -6 2 -35 12 -63 21 -29 10 -53 23 -53 29 0 16 36
110 61 158 l19 39 60 -30 60 -30 -21 -53z m-132 -158 c32 -12 59 -23 61 -24 4
-3 -45 -195 -51 -201 -5 -6 -116 21 -125 30 -9 9 42 216 53 216 2 0 30 -10 62
-21z m2455 -199 c119 -44 214 -166 224 -286 l5 -59 -30 61 c-37 74 -102 136
-179 172 -50 23 -70 26 -162 27 -58 0 -126 -4 -152 -8 l-48 -8 0 40 c0 35 4
43 31 56 76 40 214 42 311 5z m-2037 -204 c46 -20 122 -92 148 -141 27 -53 29
-164 3 -215 -49 -94 -112 -143 -210 -161 -64 -12 -147 6 -199 43 -34 24 -30
34 6 17 31 -14 70 -1 108 36 56 56 72 92 73 168 1 76 -19 121 -75 172 -38 34
-46 37 -86 32 -38 -4 -42 -3 -31 11 40 47 188 69 263 38z m3614 -26 c44 -25
55 -46 20 -37 -44 12 -136 -56 -158 -116 -14 -37 -14 -126 1 -168 15 -45 55
-95 95 -120 29 -18 34 -19 68 -5 48 20 35 3 -23 -31 -41 -24 -57 -28 -127 -28
-90 0 -138 19 -195 77 -178 178 -43 469 211 455 45 -3 79 -11 108 -27z m-1954
-124 c31 -22 9 -49 -116 -141 -80 -59 -109 -156 -74 -243 l15 -37 -34 37 c-73
77 -77 225 -8 317 46 62 171 101 217 67z m151 -40 c85 -40 154 -145 154 -235
0 -44 -21 -104 -51 -148 -23 -33 -29 -52 -29 -96 0 -30 -12 -115 -27 -188 -21
-106 -26 -164 -27 -279 l0 -145 42 -120 c65 -182 110 -319 114 -351 3 -24 -1
-29 -30 -38 -28 -8 -33 -13 -29 -32 2 -13 0 -21 -4 -18 -5 3 -9 12 -9 21 0 11
-6 14 -22 9 -13 -4 -60 -14 -104 -23 l-82 -16 -6 -60 c-3 -33 -6 -101 -7 -151
0 -50 -4 -111 -9 -136 -6 -28 -7 87 -5 300 16 1157 17 1480 9 1480 -12 0 -75
-83 -99 -129 -51 -101 -58 -209 -25 -396 24 -140 25 -207 5 -312 -14 -73 -156
-510 -177 -543 -33 -54 38 241 87 363 4 9 3 17 -1 17 -12 -1 -167 -290 -212
-395 -20 -46 -37 -83 -38 -82 -1 1 8 41 21 89 14 51 19 90 14 95 -11 11 49
137 128 272 133 227 154 323 117 555 -21 133 -15 251 18 328 32 77 80 144 120
167 18 11 38 25 45 30 29 25 95 -5 137 -62 30 -40 28 -120 -4 -171 l-23 -39
25 17 c34 22 53 70 51 128 -2 84 -59 149 -143 163 l-40 7 0 74 0 74 33 0 c17
0 55 -11 83 -24z m-2249 -208 c7 -73 9 -136 5 -140 -4 -3 -20 -8 -37 -10 -27
-3 -30 0 -33 26 -2 16 1 33 7 39 8 8 11 8 11 -1 0 -7 5 -12 10 -12 6 0 8 10 6
23 -3 12 -8 52 -11 90 -6 66 -7 67 -36 67 -27 0 -29 -2 -29 -40 0 -38 1 -40
25 -34 22 5 25 3 25 -20 0 -20 -5 -26 -21 -26 -21 0 -22 -3 -15 -62 3 -35 11
-89 17 -121 10 -50 15 -57 33 -55 15 2 22 -3 24 -18 2 -16 -5 -23 -33 -31 -19
-6 -37 -7 -40 -3 -17 27 -55 313 -55 410 l0 50 68 0 68 0 11 -132z m2453 -108
c0 -18 66 -84 118 -117 29 -19 87 -65 128 -103 134 -122 321 -233 526 -311 49
-19 88 -39 88 -45 0 -5 -7 -19 -15 -30 -8 -10 -14 -23 -15 -29 0 -5 31 -35 70
-65 38 -30 69 -59 70 -63 0 -5 -36 17 -80 48 l-81 56 -19 -23 c-11 -13 -19
-27 -20 -33 0 -5 24 -34 53 -64 l52 -54 -50 35 c-27 20 -106 64 -175 98 -69
34 -156 83 -195 108 -130 83 -222 202 -266 342 -24 76 -36 42 -20 -58 25 -162
130 -296 336 -430 161 -104 152 -97 136 -116 -15 -18 -12 -24 43 -83 43 -47
19 -41 -30 8 l-42 42 -31 -22 c-17 -12 -31 -28 -31 -35 0 -7 14 -31 31 -54 41
-56 31 -66 -12 -12 -18 22 -43 46 -55 53 -31 17 -177 130 -251 194 -67 58
-125 138 -149 205 -8 24 -21 110 -28 192 l-13 149 -52 99 c-49 93 -57 128 -31
128 5 0 10 -4 10 -10z m-19 -178 c18 -47 23 -87 29 -232 12 -268 39 -330 242
-551 100 -109 107 -120 90 -130 -19 -12 -19 -14 4 -66 27 -61 16 -63 -17 -3
-25 45 -27 46 -54 26 -17 -12 -18 -17 -7 -41 18 -39 7 -43 -13 -6 l-16 31 -59
-30 c-33 -16 -65 -30 -72 -30 -7 0 -25 35 -40 78 -15 44 -52 133 -82 199 -103
226 -122 348 -91 609 17 148 36 221 54 210 5 -4 20 -32 32 -64z m-591 24 c0
-2 -11 -24 -25 -49 -21 -37 -28 -67 -36 -164 -11 -145 -27 -201 -77 -279 -47
-72 -101 -120 -231 -208 -54 -36 -127 -97 -163 -134 -35 -38 -71 -73 -79 -77
-13 -8 -6 3 64 96 27 36 34 59 19 59 -4 0 -28 -20 -52 -45 -62 -63 -70 -56
-16 13 25 32 46 63 46 69 0 6 57 39 126 73 96 46 139 74 178 113 85 84 105
139 136 370 11 87 29 125 69 150 25 16 41 21 41 13z m2374 -272 c26 -9 50 -22
52 -29 5 -13 -32 -118 -65 -183 l-21 -42 -53 26 c-28 15 -54 28 -56 30 -8 7
74 214 85 214 6 0 32 -7 58 -16z m-2398 -185 c-9 -41 -34 -111 -56 -156 -46
-93 -177 -272 -258 -353 l-56 -55 35 63 c19 35 60 96 93 135 165 203 236 347
236 479 0 25 3 48 8 52 14 15 13 -92 -2 -165z m-373 -1038 c132 -45 323 -88
433 -98 l74 -6 0 78 c0 43 3 75 7 72 3 -4 7 -40 7 -80 l1 -72 58 -3 57 -3 0
-110 0 -111 -77 6 c-43 4 -97 9 -121 12 l-43 5 6 47 c13 101 7 95 83 87 37 -4
70 -9 75 -12 4 -2 7 -17 7 -33 0 -36 -6 -40 -55 -30 -35 7 -37 9 -17 15 33 11
26 25 -13 25 -33 0 -35 -2 -35 -35 0 -32 3 -35 29 -35 15 0 49 -3 75 -6 l46
-7 0 71 0 71 -42 5 c-24 3 -73 8 -109 11 l-66 5 -11 -81 c-5 -44 -13 -83 -16
-86 -5 -5 -186 24 -214 35 -13 5 -12 23 9 103 l9 37 48 -10 c96 -18 92 -16 92
-48 0 -35 -12 -43 -50 -35 -35 8 -40 25 -8 25 12 0 18 3 14 8 -4 4 -8 6 -9 4
-1 -2 -14 1 -29 7 -25 9 -27 8 -33 -19 -9 -40 -3 -47 52 -54 27 -4 56 -9 65
-12 19 -5 22 4 33 86 l6 45 -103 21 c-57 12 -104 20 -106 19 -2 -2 -12 -36
-22 -75 -10 -39 -21 -74 -24 -78 -20 -19 -479 162 -501 198 -3 5 17 47 45 94
l50 85 103 -49 c56 -27 155 -67 220 -89z"/>
<path d="M648 3642 c-54 -84 -54 -85 -8 -116 22 -14 40 -28 40 -31 0 -2 -9
-20 -21 -39 -13 -22 -26 -33 -35 -29 -17 6 -18 25 -1 42 10 10 8 15 -7 27 -11
8 -25 14 -31 14 -14 0 -38 -48 -30 -60 5 -8 90 -60 99 -60 7 0 66 111 66 124
0 6 -16 22 -35 35 -19 13 -35 27 -35 31 0 18 48 75 63 74 9 -1 17 2 17 6 0 7
-33 40 -41 40 -2 0 -21 -26 -41 -58z"/>
<path d="M2080 2793 c-39 -20 -59 -62 -59 -130 -1 -49 4 -52 30 -19 12 15 44
32 87 45 69 21 177 89 164 103 -5 5 -48 11 -97 14 -75 4 -96 2 -125 -13z"/>
<path d="M4590 3137 c-14 -6 -27 -12 -29 -14 -5 -3 50 -226 58 -235 3 -4 27
-2 53 4 27 6 50 9 53 7 9 -10 21 -119 14 -131 -6 -10 -12 -8 -24 7 -15 18 -16
18 -11 2 3 -10 6 -30 6 -43 0 -21 5 -24 35 -24 35 0 36 1 31 33 -22 140 -31
180 -42 184 -7 2 -29 0 -50 -6 -46 -13 -46 -14 -69 91 -18 75 -18 81 -2 93 34
25 17 49 -23 32z"/>
<path d="M4382 1449 c-42 -69 -49 -89 -34 -89 4 -1 20 -11 36 -25 l29 -23 -33
-52 c-23 -35 -36 -48 -43 -41 -8 8 -16 6 -29 -6 -23 -21 -23 -36 1 -57 18 -16
20 -15 53 31 19 26 49 69 66 94 l32 47 -35 26 c-19 15 -35 31 -35 37 0 5 11
27 25 49 l25 40 40 -20 c47 -24 46 -24 54 -5 4 11 -9 22 -44 40 -27 14 -53 25
-57 25 -5 0 -27 -32 -51 -71z"/>
<path d="M4040 1010 c-78 -75 -111 -113 -104 -120 7 -7 39 16 103 73 127 112
115 106 151 72 28 -27 31 -28 47 -12 15 15 13 19 -28 56 -24 22 -46 40 -49 40
-3 0 -57 -49 -120 -109z"/>
<path d="M2900 439 c-131 -21 -119 -13 -122 -77 l-3 -57 -72 -3 -73 -3 0 51
c0 38 -4 50 -15 50 -12 0 -15 -14 -15 -66 l0 -67 107 7 c59 4 111 10 115 12 4
3 4 27 1 54 -6 55 -2 59 87 63 44 2 45 1 48 -29 3 -27 -1 -33 -24 -38 -34 -9
-43 0 -18 19 14 11 15 14 4 15 -51 0 -73 -24 -51 -58 11 -18 120 -6 128 14 8
21 -17 124 -30 123 -7 -1 -37 -5 -67 -10z"/>
<path d="M1534 595 c-14 -25 -23 -52 -20 -61 6 -15 150 -87 198 -99 20 -5 25
0 38 37 18 49 25 51 113 18 55 -21 55 -21 46 -52 -11 -40 -9 -39 -52 -26 -41
13 -51 33 -12 26 38 -8 30 9 -11 22 -41 14 -44 12 -47 -26 -2 -27 2 -30 67
-51 39 -12 71 -21 72 -20 1 1 9 31 17 65 17 73 30 60 -113 111 -46 17 -87 27
-91 23 -4 -4 -12 -24 -19 -44 -6 -21 -15 -40 -20 -43 -11 -7 -150 55 -150 66
0 4 5 20 12 34 8 18 17 24 27 19 9 -3 28 -11 44 -16 28 -10 34 -22 17 -33 -15
-9 -12 -22 5 -29 10 -4 20 6 30 31 8 20 14 37 13 38 -13 11 -111 55 -122 55
-8 0 -27 -20 -42 -45z"/>
</g>
</svg>
